<?xml version="1.0" standalone="no"?>
<!DOCTYPE svg PUBLIC "-//W3C//DTD SVG 20010904//EN"
 "http://www.w3.org/TR/2001/REC-SVG-20010904/DTD/svg10.dtd">
<svg version="1.0" xmlns="http://www.w3.org/2000/svg"
 width="348.000000pt" height="348.000000pt" viewBox="0 0 348.000000 348.000000"
 preserveAspectRatio="xMidYMid meet">
<metadata>
Created by potrace 1.14, written by Peter Selinger 2001-2017
</metadata>
<g transform="translate(0.000000,348.000000) scale(0.100000,-0.100000)"
fill="#000000" stroke="none">
<path d="M845 2718 c-82 -9 -218 -49 -290 -85 -75 -38 -173 -110 -235 -174
-70 -71 -100 -107 -100 -118 0 -5 -6 -14 -14 -20 -18 -15 -98 -180 -120 -247
-17 -52 -18 -58 -37 -159 -12 -66 -15 -234 -5 -305 46 -331 235 -613 498 -746
37 -19 70 -34 73 -34 3 -1 26 -10 52 -21 26 -11 66 -23 88 -25 22 -3 56 -9 75
-13 40 -8 127 -7 199 3 118 16 264 85 363 173 27 23 50 43 51 43 2 0 3 -47 2
-105 l0 -105 35 -1 c41 -1 240 -1 256 0 7 1 10 153 10 496 l0 495 -45 1 c-44
1 -608 0 -623 -1 -5 0 -8 -61 -8 -135 l0 -135 33 -1 c17 0 102 -1 187 -2 l155
-2 0 -67 0 -68 -56 -57 c-77 -79 -91 -90 -173 -134 -128 -69 -264 -87 -391
-54 -58 15 -155 64 -182 90 -7 8 -23 22 -36 32 -56 45 -150 192 -162 253 -2
11 -6 24 -9 28 -3 5 -7 22 -10 38 -3 16 -9 49 -14 74 -12 69 -6 229 12 300 51
197 161 343 315 417 69 33 84 37 176 40 65 2 119 -2 155 -12 64 -17 180 -72
180 -86 0 -5 5 -9 10 -9 16 0 90 -80 122 -133 18 -29 34 -44 41 -40 29 17 189
138 212 161 8 6 16 12 20 12 4 0 13 6 20 14 12 12 12 16 0 26 -8 7 -15 17 -15
23 0 11 -60 93 -101 138 -64 70 -186 151 -279 186 -120 45 -299 66 -435 51z"/>
<path d="M2059 2678 c-2 -18 -2 -49 2 -68 3 -19 2 -45 -3 -57 -4 -12 -3 -25 2
-28 5 -3 6 -15 0 -29 -4 -12 -4 -29 0 -36 5 -8 7 -18 4 -22 -7 -10 -6 -509 1
-516 2 -3 0 -11 -6 -18 -7 -8 -7 -14 0 -18 6 -4 7 -15 1 -30 -4 -12 -4 -29 0
-36 5 -8 7 -18 4 -22 -7 -11 -6 -507 1 -518 3 -5 1 -11 -4 -15 -7 -3 -7 -15
-1 -30 6 -15 6 -27 0 -30 -6 -4 -7 -13 -1 -23 5 -9 6 -25 2 -34 -3 -9 -4 -67
-1 -128 3 -61 1 -115 -3 -119 -5 -5 -4 -12 2 -15 8 -5 8 -13 1 -27 -6 -11 -8
-24 -4 -31 4 -6 7 -20 8 -31 1 -20 7 -20 161 -19 88 0 169 1 180 1 20 1 20 8
20 323 l0 322 265 2 c250 2 269 3 340 26 41 14 95 37 118 52 45 28 172 145
172 158 0 4 16 32 35 63 20 30 33 55 30 55 -3 0 1 10 9 23 47 75 67 279 39
402 -19 86 -71 198 -123 269 -28 38 -130 133 -158 146 -15 8 -34 19 -42 26 -8
6 -42 22 -75 35 -60 24 -63 24 -516 27 l-457 3 -3 -33z m721 -298 c88 -2 113
-6 151 -26 54 -27 94 -71 122 -134 40 -91 21 -317 -31 -357 -9 -7 -12 -13 -7
-13 17 0 -41 -52 -80 -73 -37 -19 -57 -21 -275 -21 l-235 -1 -1 312 -1 312 86
3 c47 2 104 2 126 1 22 -1 87 -2 145 -3z"/>
</g>
</svg>
