<?xml version="1.0" encoding="utf-8"?>
<svg version="1.1" xmlns="http://www.w3.org/2000/svg" xmlns:xlink="http://www.w3.org/1999/xlink" viewBox="0 0 2100 2100">
  <style type="text/css">
    .t0{fill-rule:evenodd;clip-rule:evenodd;fill:#000;stroke:#000;stroke-width:0.6;stroke-miterlimit:10;}
	.t1{fill-rule:evenodd;clip-rule:evenodd;fill:#fff;}
	.t2{fill:#fff;}
  </style>
  <g>
    <rect class="t0" width="2100" height="2100"/>
    <rect class="t0" width="2100" height="2100"/>
    <path class="t1" d="M1089.98,1041.59L475,1549.23l614.98-427.79v502.97h218.17V1415.6h108.06c196.01,0,338.79-90.65,338.79-262.82
		v-2.12c0-161.8-128.16-256.67-327.37-256.67h-90h-69L1089.98,1041.59z M1308.16,1256.98v-192.94h102.57
		c78.81,0,125.88,33.47,125.88,95.93v2.12c0,57.39-47.06,94.88-124.74,94.88H1308.16z"/>
    <path class="t2" d="M1098.95,949.79V771.42h-344.9v141.2h147.88v84.64c-31.1,18.99-69.81,28.89-120.04,28.89
		c-118.95,0-203.55-80.6-203.55-193.11v-2.02c0-106.45,83.51-191.09,191.8-191.09c73.94,0,127.44,24.04,180.93,65.65l122.21-136.15
		c-79.37-63.83-172.45-101.61-304.23-101.61C536.58,467.81,365,626.99,365,830v2.02c0,209.68,172.45,358.35,403.62,360.17
		c72.42-4.04,130.7-21.21,172.45-49.29l157.89-130.69L1645,560.53L1098.95,949.79z"/>
  </g>
</svg>
