<svg xmlns="http://www.w3.org/2000/svg" viewBox="0 0 48 48"><path d="M42 21H24a1 1 0 0 0-1 1v6c0 1.654 1.346 3 3 3h7v9a1 1 0 0 0 1 1h6c1.654 0 3-1.346 3-3V22a1 1 0 0 0-1-1" class="outside"/><path d="M24 16a1 1 0 0 0 1-1V7a1 1 0 0 0-1-1C13.647 6 5.108 13.907 4.101 24H4v2c0 11.028 8.972 20 20 20a1 1 0 0 0 1-1v-8a1 1 0 0 0-1-1c-5.514 0-10-4.486-10-10s4.486-10 10-10" class="outside"/><path fill="#fff" d="M34 20H24v6a2 2 0 0 0 2 2h8v10h6a2 2 0 0 0 2-2V20zm-10-7V5C13.507 5 5 13.507 5 24s8.507 19 19 19v-8c-6.075 0-11-4.925-11-11s4.925-11 11-11" class="inside"/><path d="M40 39h-6a1 1 0 0 1-1-1v-9h-7c-1.654 0-3-1.346-3-3v-6a1 1 0 0 1 1-1h18a1 1 0 0 1 1 1v16c0 1.654-1.346 3-3 3m-5-2h5c.551 0 1-.448 1-1V21H25v5c0 .552.449 1 1 1h8a1 1 0 0 1 1 1z" class="outside"/><path d="M24 44C12.972 44 4 35.028 4 24S12.972 4 24 4a1 1 0 0 1 1 1v8a1 1 0 0 1-1 1c-5.514 0-10 4.486-10 10s4.486 10 10 10a1 1 0 0 1 1 1v8a1 1 0 0 1-1 1M23 6.027C13.538 6.548 6 14.41 6 24s7.538 17.452 17 17.973v-6.014C16.85 35.449 12 30.28 12 24s4.85-11.449 11-11.959z" class="outside"/></svg>
