<?xml version="1.0" standalone="no"?>
<svg version="1.0" xmlns="http://www.w3.org/2000/svg" width="700.000000pt" height="700.000000pt" viewBox="0 0 700.000000 700.000000" preserveAspectRatio="xMidYMid meet">
  <g transform="translate(0.000000,700.000000) scale(0.100000,-0.100000)" fill="#000000" stroke="none">
    <path d="M0 3500 l0 -3500 3500 0 3500 0 0 3500 0 3500 -3500 0 -3500 0 0
-3500z m2905 1911 c231 -43 479 -154 640 -285 28 -22 29 -25 14 -43 -9 -10
-96 -108 -194 -218 -98 -110 -182 -204 -185 -208 -4 -5 -38 12 -75 38 -145 99
-266 145 -429 165 -231 27 -408 -31 -562 -185 -128 -128 -184 -265 -184 -451
0 -393 301 -660 725 -642 120 6 244 34 310 71 l40 23 3 142 3 142 -251 0 -250
0 0 235 0 235 575 0 575 0 0 -295 c0 -162 3 -295 6 -295 5 0 1652 1171 1742
1238 58 44 33 17 -40 -43 -116 -95 -1729 -1429 -1986 -1643 -129 -106 -254
-207 -280 -223 -62 -39 -186 -86 -296 -112 -133 -31 -418 -30 -563 1 -292 63
-541 196 -716 381 -155 165 -251 357 -292 584 -26 144 -17 365 20 502 120 450
507 792 1002 884 156 29 160 30 363 25 125 -2 217 -10 285 -23z m2160 -1415
c412 -78 674 -292 761 -621 25 -96 25 -330 1 -430 -57 -229 -225 -425 -459
-535 -199 -93 -355 -121 -725 -127 l-283 -5 0 -344 0 -344 -365 0 -365 0 -2
833 -3 833 -895 -623 c-1047 -729 -1080 -751 -1059 -729 9 9 587 489 1285
1066 l1269 1050 375 -4 c300 -2 393 -6 465 -20z"/>
    <path d="M4360 3130 l0 -320 208 0 c283 0 366 20 463 107 57 52 81 104 87 189
11 173 -73 282 -255 329 -42 11 -115 15 -280 15 l-223 0 0 -320z"/>
  </g>
</svg>
